<svg width="116" height="89" viewBox="0 0 116 89" fill="none" xmlns="http://www.w3.org/2000/svg">
<path d="M8.92969 78.4062V74.0469H11.8359L14.1914 78.6875C14.7188 79.7188 15.1641 80.0703 15.9961 80.0703C16.8984 80.0703 17.5664 79.4609 17.5664 78.6055C17.5664 78.2656 17.4609 77.8672 17.2852 77.5508L14.9648 73.2969C16.7461 72.5469 17.7891 70.9297 17.7891 68.9023C17.7891 65.8789 15.668 64.0039 12.2461 64.0039H8.15625C6.49219 64.0039 5.76562 64.7539 5.76562 66.418V78.4062C5.76562 79.4844 6.35156 80.1172 7.35938 80.1172C8.35547 80.1172 8.92969 79.4844 8.92969 78.4062ZM8.92969 71.6797V66.5938H11.8242C13.5703 66.5938 14.6133 67.5195 14.6133 69.1484C14.6133 70.7891 13.582 71.6797 11.7891 71.6797H8.92969Z" fill="#1A202C"/>
<path d="M27.1992 78.418H27.3516V78.8516C27.4453 79.6602 27.9844 80.1172 28.8047 80.1172C29.7656 80.1172 30.3047 79.5195 30.3047 78.4648V71.668C30.3047 68.9141 28.4766 67.3672 25.2188 67.3672C23.8594 67.3672 22.8164 67.6016 22.0312 68.0117C20.9414 68.5625 20.4375 69.3008 20.4375 70.0273C20.4375 70.6602 20.8594 71.1172 21.5391 71.1172C22.043 71.1172 22.3711 70.9883 22.7227 70.707C23.4141 70.0859 24.082 69.7344 25.0195 69.7344C26.4375 69.7344 27.2227 70.3906 27.2227 71.6445V72.6641H24.2695C21.4453 72.6641 19.7461 74.082 19.7461 76.3789C19.7461 78.6406 21.3867 80.1641 23.8125 80.1641C25.3359 80.1641 26.5664 79.5312 27.1992 78.418ZM22.8164 76.1914C22.8164 75.1719 23.5664 74.5625 24.832 74.5625H27.2227V75.8516C27.2227 77.0234 26.1797 77.9375 24.8438 77.9375C23.6367 77.9375 22.8164 77.2227 22.8164 76.1914Z" fill="#1A202C"/>
<path d="M44.2148 78.4297V71.668C44.2148 68.9375 42.7148 67.3672 40.0664 67.3672C38.2383 67.3672 36.8438 68.2812 36.3633 69.7578H36.2109V68.9961C36.1758 68 35.6367 67.4492 34.7109 67.4492C33.7734 67.4492 33.1875 68.082 33.1875 69.1016V78.418C33.1875 79.5078 33.75 80.1172 34.7344 80.1172C35.7188 80.1172 36.2812 79.5078 36.2812 78.418V73.0859C36.2812 71.1523 37.2891 69.9688 38.8945 69.9688C40.3242 69.9688 41.1328 70.8828 41.1328 72.5117V78.418C41.1328 79.5078 41.6836 80.1172 42.6797 80.1172C43.6641 80.1172 44.2148 79.5195 44.2148 78.4297Z" fill="#1A202C"/>
<path d="M54.9844 78.0195H55.1367V78.6055C55.1953 79.5664 55.7461 80.1172 56.6484 80.1172C57.6328 80.1172 58.1719 79.5078 58.1719 78.418V64.7773C58.1719 63.6875 57.6094 63.0664 56.625 63.0664C55.6289 63.0664 55.0781 63.6875 55.0781 64.7773V69.418H54.9258C54.4453 68.1406 53.1094 67.3672 51.375 67.3672C48.5039 67.3672 46.6992 69.4531 46.6992 72.8164V74.7148C46.6992 78.0664 48.4922 80.1641 51.3398 80.1641C53.1211 80.1641 54.5859 79.2969 54.9844 78.0195ZM49.875 74.3984V73.1445C49.875 71.082 50.8125 69.8398 52.4062 69.8398C53.9883 69.8398 55.0781 71.0703 55.0781 72.875V74.5273C55.0781 76.4844 54.0586 77.7031 52.4531 77.7031C50.8242 77.7031 49.875 76.4727 49.875 74.3984Z" fill="#1A202C"/>
<path d="M66.5039 67.2969C63.1055 67.2969 60.7617 69.4414 60.7617 73.0273V74.4922C60.7617 78.1719 63.1055 80.2695 66.5039 80.2695C69.8906 80.2695 72.2344 78.1719 72.2344 74.4805V73.0156C72.2344 69.4414 69.8906 67.2969 66.5039 67.2969ZM66.5039 69.6992C68.1094 69.6992 69.0586 70.9883 69.0586 73.0859V74.4688C69.0586 76.5898 68.1094 77.8672 66.5039 77.8672C64.9219 77.8672 63.9375 76.5898 63.9375 74.4688V73.0859C63.9375 70.9883 64.9219 69.6992 66.5039 69.6992Z" fill="#1A202C"/>
<path d="M92.625 78.418V71.3164C92.625 68.8555 91.125 67.3672 88.6172 67.3672C86.8242 67.3672 85.418 68.2695 84.8789 69.7109H84.7383C84.3281 68.2578 83.0625 67.3672 81.3164 67.3672C79.6289 67.3672 78.3281 68.2344 77.918 69.6289H77.7656V69.043C77.7188 68.0469 77.168 67.4492 76.2656 67.4492C75.3281 67.4492 74.7422 68.082 74.7422 69.1133V78.418C74.7422 79.5195 75.3047 80.1172 76.2891 80.1172C77.2734 80.1172 77.8359 79.5195 77.8359 78.418V72.4062C77.8359 70.8945 78.7148 69.9219 80.0273 69.9219C81.3633 69.9219 82.1953 70.8242 82.1953 72.3008V78.418C82.1953 79.5195 82.7227 80.1172 83.6836 80.1172C84.6562 80.1172 85.1836 79.5195 85.1836 78.418V72.418C85.1836 70.918 86.0859 69.9219 87.4102 69.9219C88.7461 69.9219 89.543 70.7656 89.543 72.2422V78.418C89.543 79.5195 90.0938 80.1172 91.0781 80.1172C92.0625 80.1172 92.625 79.5195 92.625 78.418Z" fill="#1A202C"/>
<path d="M97.2773 80.1172C98.2266 80.1172 98.8242 79.543 98.8242 78.418V64.7773C98.8242 63.6523 98.2266 63.0664 97.2773 63.0664C96.3164 63.0664 95.7305 63.6523 95.7305 64.7773V78.418C95.7305 79.543 96.3164 80.1172 97.2773 80.1172Z" fill="#1A202C"/>
<path d="M101.426 83.0703C101.426 83.3984 101.543 83.6797 101.766 83.9023C102.129 84.2539 102.762 84.4414 103.57 84.4414C106.066 84.4414 107.508 83.293 108.48 80.5039L112.219 69.7812C112.348 69.418 112.395 69.1719 112.395 68.9375C112.395 68.1055 111.773 67.4961 110.93 67.4961C110.121 67.4961 109.605 67.9766 109.348 68.9727L106.91 77.4453H106.781L104.367 68.9727C104.121 67.9766 103.594 67.4961 102.762 67.4961C101.883 67.4961 101.238 68.1172 101.238 68.9492C101.238 69.1719 101.273 69.4414 101.391 69.7812L105.047 80.1523C105.047 80.2344 104.93 80.75 104.895 80.8203C104.637 81.6172 104.051 82.1328 103.348 82.1328C102.996 82.1328 102.785 82.0742 102.539 82.0742C101.871 82.0742 101.426 82.4961 101.426 83.0703Z" fill="#1A202C"/>
<rect x="34" width="48" height="48" rx="8.72727" fill="url(#paint0_linear)"/>
<path d="M55.4808 32.1375V28.1642H57.6131L60.0217 32.8278C61.0035 34.7455 61.8472 35.3744 63.458 35.3744C65.2376 35.3744 66.4802 34.2085 66.4802 32.521C66.4802 31.9074 66.3114 31.2477 65.9739 30.6954L63.5961 26.6455C65.8052 25.5102 67.0171 23.4699 67.0171 20.8926C67.0171 16.7966 64.0103 14.296 59.0859 14.296H53.333C50.6944 14.296 49.4058 15.692 49.4058 18.5148V32.1375C49.4058 34.2085 50.5256 35.3898 52.4893 35.3898C54.4222 35.3898 55.4808 34.2239 55.4808 32.1375ZM55.4808 24.0682V19.0057H58.2421C59.9756 19.0057 61.0495 19.8648 61.0495 21.4756C61.0495 23.1324 59.9603 24.0682 58.2881 24.0682H55.4808Z" fill="white"/>
<defs>
<linearGradient id="paint0_linear" x1="58" y1="0" x2="58" y2="48" gradientUnits="userSpaceOnUse">
<stop stop-color="#AD85FF"/>
<stop offset="1" stop-color="#7E7AEA"/>
</linearGradient>
</defs>
</svg>
