<svg width="24" height="24" viewBox="0 0 24 24" fill="none" xmlns="http://www.w3.org/2000/svg">
<path fill-rule="evenodd" clip-rule="evenodd" d="M3.80638 6.20635C4.70651 5.30649 5.92719 4.80097 7.19998 4.80097C8.47276 4.80097 9.69344 5.30649 10.5936 6.20635L12 7.61155L13.4064 6.20635C13.8492 5.7479 14.3788 5.38223 14.9644 5.13066C15.5501 4.8791 16.1799 4.74669 16.8172 4.74115C17.4546 4.73561 18.0867 4.85706 18.6766 5.09841C19.2665 5.33975 19.8024 5.69617 20.2531 6.14685C20.7038 6.59754 21.0602 7.13347 21.3015 7.72337C21.5429 8.31327 21.6643 8.94534 21.6588 9.58268C21.6532 10.22 21.5208 10.8499 21.2693 11.4355C21.0177 12.0211 20.652 12.5508 20.1936 12.9936L12 21.1884L3.80638 12.9936C2.90651 12.0934 2.401 10.8727 2.401 9.59995C2.401 8.32716 2.90651 7.10648 3.80638 6.20635Z" fill="#9F7AEA"/>
</svg>
