<svg width="24" height="24" viewBox="0 0 24 24" fill="none" xmlns="http://www.w3.org/2000/svg">
<path d="M4.318 6.31804C3.90013 6.7359 3.56866 7.23198 3.34251 7.77795C3.11636 8.32392 2.99996 8.90909 2.99996 9.50004C2.99996 10.091 3.11636 10.6762 3.34251 11.2221C3.56866 11.7681 3.90013 12.2642 4.318 12.682L12 20.364L19.682 12.682C20.5259 11.8381 21 10.6935 21 9.50004C21 8.30656 20.5259 7.16196 19.682 6.31804C18.8381 5.47412 17.6935 5.00001 16.5 5.00001C15.3065 5.00001 14.1619 5.47412 13.318 6.31804L12 7.63604L10.682 6.31804C10.2641 5.90017 9.76806 5.5687 9.22209 5.34255C8.67612 5.1164 8.09095 5 7.5 5C6.90905 5 6.32388 5.1164 5.77791 5.34255C5.23194 5.5687 4.73586 5.90017 4.318 6.31804V6.31804Z" stroke="#718096" stroke-width="2" stroke-linecap="round" stroke-linejoin="round"/>
</svg>
