<svg width="120" height="28" viewBox="0 0 120 28" fill="none" xmlns="http://www.w3.org/2000/svg">
<rect width="28" height="28" rx="5.09091" fill="url(#paint0_linear)"/>
<path d="M12.5306 18.7469V16.4291H13.7745L15.1794 19.1496C15.7522 20.2682 16.2443 20.6351 17.184 20.6351C18.222 20.6351 18.9469 19.955 18.9469 18.9706C18.9469 18.6126 18.8485 18.2278 18.6516 17.9057L17.2645 15.5432C18.5532 14.881 19.2601 13.6908 19.2601 12.1874C19.2601 9.79802 17.5061 8.33936 14.6335 8.33936H11.2777C9.73852 8.33936 8.98682 9.1537 8.98682 10.8003V18.7469C8.98682 19.955 9.64008 20.644 10.7855 20.644C11.9131 20.644 12.5306 19.9639 12.5306 18.7469ZM12.5306 14.0398V11.0867H14.1414C15.1526 11.0867 15.779 11.5878 15.779 12.5274C15.779 13.4939 15.1436 14.0398 14.1682 14.0398H12.5306Z" fill="white"/>
<path d="M41.8223 19.8047V16.5352H44.002L45.7686 20.0156C46.1641 20.7891 46.498 21.0527 47.1221 21.0527C47.7988 21.0527 48.2998 20.5957 48.2998 19.9541C48.2998 19.6992 48.2207 19.4004 48.0889 19.1631L46.3486 15.9727C47.6846 15.4102 48.4668 14.1973 48.4668 12.6768C48.4668 10.4092 46.876 9.00293 44.3096 9.00293H41.2422C39.9941 9.00293 39.4492 9.56543 39.4492 10.8135V19.8047C39.4492 20.6133 39.8887 21.0879 40.6445 21.0879C41.3916 21.0879 41.8223 20.6133 41.8223 19.8047ZM41.8223 14.7598V10.9453H43.9932C45.3027 10.9453 46.085 11.6396 46.085 12.8613C46.085 14.0918 45.3115 14.7598 43.9668 14.7598H41.8223Z" fill="#1A202C"/>
<path d="M55.5244 19.8135H55.6387V20.1387C55.709 20.7451 56.1133 21.0879 56.7285 21.0879C57.4492 21.0879 57.8535 20.6396 57.8535 19.8486V14.751C57.8535 12.6855 56.4824 11.5254 54.0391 11.5254C53.0195 11.5254 52.2373 11.7012 51.6484 12.0088C50.8311 12.4219 50.4531 12.9756 50.4531 13.5205C50.4531 13.9951 50.7695 14.3379 51.2793 14.3379C51.6572 14.3379 51.9033 14.2412 52.167 14.0303C52.6855 13.5645 53.1865 13.3008 53.8896 13.3008C54.9531 13.3008 55.542 13.793 55.542 14.7334V15.498H53.3271C51.209 15.498 49.9346 16.5615 49.9346 18.2842C49.9346 19.9805 51.165 21.123 52.9844 21.123C54.127 21.123 55.0498 20.6484 55.5244 19.8135ZM52.2373 18.1436C52.2373 17.3789 52.7998 16.9219 53.749 16.9219H55.542V17.8887C55.542 18.7676 54.7598 19.4531 53.7578 19.4531C52.8525 19.4531 52.2373 18.917 52.2373 18.1436Z" fill="#1A202C"/>
<path d="M68.2861 19.8223V14.751C68.2861 12.7031 67.1611 11.5254 65.1748 11.5254C63.8037 11.5254 62.7578 12.2109 62.3975 13.3184H62.2832V12.7471C62.2568 12 61.8525 11.5869 61.1582 11.5869C60.4551 11.5869 60.0156 12.0615 60.0156 12.8262V19.8135C60.0156 20.6309 60.4375 21.0879 61.1758 21.0879C61.9141 21.0879 62.3359 20.6309 62.3359 19.8135V15.8145C62.3359 14.3643 63.0918 13.4766 64.2959 13.4766C65.3682 13.4766 65.9746 14.1621 65.9746 15.3838V19.8135C65.9746 20.6309 66.3877 21.0879 67.1348 21.0879C67.873 21.0879 68.2861 20.6396 68.2861 19.8223Z" fill="#1A202C"/>
<path d="M76.3633 19.5146H76.4775V19.9541C76.5215 20.6748 76.9346 21.0879 77.6113 21.0879C78.3496 21.0879 78.7539 20.6309 78.7539 19.8135V9.58301C78.7539 8.76562 78.332 8.2998 77.5938 8.2998C76.8467 8.2998 76.4336 8.76562 76.4336 9.58301V13.0635H76.3193C75.959 12.1055 74.957 11.5254 73.6562 11.5254C71.5029 11.5254 70.1494 13.0898 70.1494 15.6123V17.0361C70.1494 19.5498 71.4941 21.123 73.6299 21.123C74.9658 21.123 76.0645 20.4727 76.3633 19.5146ZM72.5312 16.7988V15.8584C72.5312 14.3115 73.2344 13.3799 74.4297 13.3799C75.6162 13.3799 76.4336 14.3027 76.4336 15.6562V16.8955C76.4336 18.3633 75.6689 19.2773 74.4648 19.2773C73.2432 19.2773 72.5312 18.3545 72.5312 16.7988Z" fill="#1A202C"/>
<path d="M85.0029 11.4727C82.4541 11.4727 80.6963 13.0811 80.6963 15.7705V16.8691C80.6963 19.6289 82.4541 21.2021 85.0029 21.2021C87.543 21.2021 89.3008 19.6289 89.3008 16.8604V15.7617C89.3008 13.0811 87.543 11.4727 85.0029 11.4727ZM85.0029 13.2744C86.207 13.2744 86.9189 14.2412 86.9189 15.8145V16.8516C86.9189 18.4424 86.207 19.4004 85.0029 19.4004C83.8164 19.4004 83.0781 18.4424 83.0781 16.8516V15.8145C83.0781 14.2412 83.8164 13.2744 85.0029 13.2744Z" fill="#1A202C"/>
<path d="M104.594 19.8135V14.4873C104.594 12.6416 103.469 11.5254 101.588 11.5254C100.243 11.5254 99.1885 12.2021 98.7842 13.2832H98.6787C98.3711 12.1934 97.4219 11.5254 96.1123 11.5254C94.8467 11.5254 93.8711 12.1758 93.5635 13.2217H93.4492V12.7822C93.4141 12.0352 93.001 11.5869 92.3242 11.5869C91.6211 11.5869 91.1816 12.0615 91.1816 12.835V19.8135C91.1816 20.6396 91.6035 21.0879 92.3418 21.0879C93.0801 21.0879 93.502 20.6396 93.502 19.8135V15.3047C93.502 14.1709 94.1611 13.4414 95.1455 13.4414C96.1475 13.4414 96.7715 14.1182 96.7715 15.2256V19.8135C96.7715 20.6396 97.167 21.0879 97.8877 21.0879C98.6172 21.0879 99.0127 20.6396 99.0127 19.8135V15.3135C99.0127 14.1885 99.6895 13.4414 100.683 13.4414C101.685 13.4414 102.282 14.0742 102.282 15.1816V19.8135C102.282 20.6396 102.695 21.0879 103.434 21.0879C104.172 21.0879 104.594 20.6396 104.594 19.8135Z" fill="#1A202C"/>
<path d="M108.083 21.0879C108.795 21.0879 109.243 20.6572 109.243 19.8135V9.58301C109.243 8.73926 108.795 8.2998 108.083 8.2998C107.362 8.2998 106.923 8.73926 106.923 9.58301V19.8135C106.923 20.6572 107.362 21.0879 108.083 21.0879Z" fill="#1A202C"/>
<path d="M111.194 23.3027C111.194 23.5488 111.282 23.7598 111.449 23.9268C111.722 24.1904 112.196 24.3311 112.803 24.3311C114.675 24.3311 115.756 23.4697 116.485 21.3779L119.289 13.3359C119.386 13.0635 119.421 12.8789 119.421 12.7031C119.421 12.0791 118.955 11.6221 118.322 11.6221C117.716 11.6221 117.329 11.9824 117.136 12.7295L115.308 19.084H115.211L113.4 12.7295C113.216 11.9824 112.82 11.6221 112.196 11.6221C111.537 11.6221 111.054 12.0879 111.054 12.7119C111.054 12.8789 111.08 13.0811 111.168 13.3359L113.91 21.1143C113.91 21.1758 113.822 21.5625 113.796 21.6152C113.603 22.2129 113.163 22.5996 112.636 22.5996C112.372 22.5996 112.214 22.5557 112.029 22.5557C111.528 22.5557 111.194 22.8721 111.194 23.3027Z" fill="#1A202C"/>
<defs>
<linearGradient id="paint0_linear" x1="14" y1="0" x2="14" y2="28" gradientUnits="userSpaceOnUse">
<stop stop-color="#AD85FF"/>
<stop offset="1" stop-color="#7E7AEA"/>
</linearGradient>
</defs>
</svg>
