<svg width="80" height="80" viewBox="0 0 80 80" fill="none" xmlns="http://www.w3.org/2000/svg">
<path fill-rule="evenodd" clip-rule="evenodd" d="M1.58536 7.94196C0 11.0534 0 15.1265 0 23.2727V56.7273C0 64.8735 0 68.9466 1.58536 72.058C2.97988 74.7949 5.20505 77.0201 7.94196 78.4146C11.0534 80 15.1265 80 23.2727 80H56.7273C64.8735 80 68.9466 80 72.058 78.4146C74.7949 77.0201 77.0201 74.7949 78.4146 72.058C80 68.9466 80 64.8735 80 56.7273V23.2727C80 15.1265 80 11.0534 78.4146 7.94196C77.0201 5.20505 74.7949 2.97988 72.058 1.58536C68.9466 0 64.8735 0 56.7273 0H23.2727C15.1265 0 11.0534 0 7.94196 1.58536C5.20505 2.97988 2.97988 5.20505 1.58536 7.94196ZM35.8011 46.9403V53.5625C35.8011 57.0398 34.0369 58.983 30.8153 58.983C27.5426 58.983 25.6761 57.0142 25.6761 53.5625V30.858C25.6761 26.1534 27.8239 23.8267 32.2216 23.8267H41.8097C50.017 23.8267 55.0284 27.9943 55.0284 34.821C55.0284 39.1165 53.0085 42.517 49.3267 44.4091L53.2898 51.1591C53.8523 52.0795 54.1335 53.179 54.1335 54.2017C54.1335 57.0142 52.0625 58.9574 49.0966 58.9574C46.4119 58.9574 45.0057 57.9091 43.3693 54.7131L39.3551 46.9403H35.8011ZM35.8011 31.6761V40.1136H40.4801C43.267 40.1136 45.0824 38.554 45.0824 35.7926C45.0824 33.108 43.2926 31.6761 40.4034 31.6761H35.8011Z" fill="url(#paint0_linear)"/>
<defs>
<linearGradient id="paint0_linear" x1="40" y1="0" x2="40" y2="80" gradientUnits="userSpaceOnUse">
<stop stop-color="#AD85FF"/>
<stop offset="1" stop-color="#7E7AEA"/>
</linearGradient>
</defs>
</svg>
